<svg xmlns="http://www.w3.org/2000/svg" width="534.359" height="82.599" viewBox="0 0 534.359 82.599">
  <path id="Path_1" data-name="Path 1" d="M172.676-58.6c.2.49.686,1.078,1.176.588.392-.392.2-1.078,0-1.47-.588-.784-2.548-1.078-3.626-1.274a69.5,69.5,0,0,0-9.016-.49c-12.642-.294-25.382.2-37.926.686S98.2-59.29,85.75-58.6c-12.25.686-24.5,1.96-36.554,3.724A297.127,297.127,0,0,0,12.25-47.432,141.248,141.248,0,0,0-5.292-41.65a53.786,53.786,0,0,0-8.232,4.116c-2.254,1.372-4.8,3.234-5.488,5.978-.588,2.842,2.45,4.9,4.606,5.88A38.952,38.952,0,0,0-5.684-23.03a164.8,164.8,0,0,0,18.326,2.548c12.25,1.372,24.7,1.96,36.946,4.116a53.7,53.7,0,0,1,8.722,2.058c2.352.784,5.586,2.156,5.684,4.9A3.3,3.3,0,0,1,63.6-7.252,10.49,10.49,0,0,1,62.23-5.684c-1.078,1.176-2.058,2.352-3.136,3.528C57.134.1,55.076,2.45,53.116,4.8c-1.078,1.176-3.724,4.312-4.508,5.39a.782.782,0,0,0,.882,1.078c.588-.1,1.176-.98,1.568-1.372l1.47-1.47C53.7,7.252,54.88,6.174,55.958,5a80.08,80.08,0,0,0,6.174-6.762,19.494,19.494,0,0,0,2.254-3.528,11.546,11.546,0,0,1,1.078-1.862c.49-.588.98-1.176,1.568-1.764,8.33-9.408,16.758-18.62,25.382-27.832,4.312-4.606,8.722-9.114,13.034-13.818a18.811,18.811,0,0,0,1.372-1.47c.294-.392.392-.784,0-1.078-.588-.49-.98.1-1.666.784-.588.49-5.88,6.174-8.036,8.428-8.624,9.212-17.248,18.62-25.774,27.93-1.078,1.176-5.88,6.468-5.88,6.468a5.743,5.743,0,0,0-1.666-3.43,10.567,10.567,0,0,0-3.332-2.058,34.02,34.02,0,0,0-8.722-2.45c-3.038-.588-6.076-1.078-9.114-1.372-12.152-1.568-24.4-2.254-36.554-3.822C0-23.422-6.37-24.108-12.054-26.264c-2.058-.784-6.272-2.45-5.488-5.292.686-2.45,4.8-4.9,6.076-5.586A92.1,92.1,0,0,1,5.684-44c6.076-1.96,12.152-3.528,18.326-4.9A358.752,358.752,0,0,1,60.76-54.88c12.25-1.47,24.6-2.254,36.946-3.038,12.544-.686,24.99-1.372,37.534-1.666,12.544-.2,26.362-.49,33.124.1A21.044,21.044,0,0,1,172.676-58.6Zm-70.07,30.086a31.664,31.664,0,0,0,4.018-2.45c3.332-2.45,12.348-9.408,10.878-14.112-.392-1.274-1.764-2.94-5.684-2.254-4.508.784-9.6,3.136-11.76,7.546a10.673,10.673,0,0,0-.686,6.958,17.469,17.469,0,0,0,2.254,5.39c.49.98,1.078,1.96,1.568,3.038,1.47,3.724-2.058,7.252-4.41,9.9-2.744,3.038-5.39,6.174-8.134,9.212-1.372,1.568-3.528,3.92-3.822,5.586-.2.98.2,1.862,1.372,1.764A13.447,13.447,0,0,0,93.786-.294c2.156-1.47,4.214-2.94,6.37-4.41,10.29-7.35,20.482-14.9,30.674-22.54,1.078-.784,2.254-1.666.588-2.156,0,0-1.078.686-1.274.882-5.488,4.018-10.976,8.134-16.366,12.152C108.486-12.544,103.292-8.82,98-5c-1.862,1.372-3.724,2.646-5.684,3.92A11.91,11.91,0,0,1,88.2.686c0-1.176,3.724-5.1,4.8-6.468,2.646-3.038,5.292-5.978,7.938-8.918,2.548-3.136,5.684-6.566,3.234-10.976A13.676,13.676,0,0,0,102.606-28.518Zm10.78-17.542c2.352-.1,3.038,1.372,2.744,2.548-.882,3.038-3.724,5.586-6.076,7.84a41.858,41.858,0,0,1-8.036,5.88,12.1,12.1,0,0,1-1.176-8.036c1.078-3.626,4.508-5.88,8.232-7.252A13.389,13.389,0,0,1,113.386-46.06Zm10.682,27.832a4.449,4.449,0,0,1,.588-1.372l2.058-2.94a75.545,75.545,0,0,1,6.174-6.37c.294-.294.686-.588.98-.882a.655.655,0,0,0,0-.98c-.49-.49-.98.1-1.372.392a67.443,67.443,0,0,0-5.39,5.194,31.89,31.89,0,0,0-3.528,4.606,6.226,6.226,0,0,0-.882,2.058,1.375,1.375,0,0,0,1.372,1.764c1.568,0,3.92-1.372,5.1-1.96l10.878-6.174c3.234-1.764,4.508-2.646,5.39-3.136.294-.1.784-1.176-.49-1.372,0,0-3.332,1.96-6.566,3.822-3.528,1.96-6.958,3.92-10.388,5.782C126.91-19.208,125.048-18.228,124.068-18.228Zm15.19-20.678a.756.756,0,0,0-.588,1.078.617.617,0,0,0,.784.294.692.692,0,0,0,.588-.784A.594.594,0,0,0,139.258-38.906Zm6.468,10.78c1.274-1.47,2.744-2.842,4.41-4.606a.767.767,0,0,0,0-1.078c-.2-.2-.49-.294-1.078.2-1.372,1.372-2.548,2.646-4.018,4.018-3.234,3.136-7.154,6.762-10,9.9a2.288,2.288,0,0,1-1.176.98c-1.176.2-6.174.588-6.174,2.45a1.184,1.184,0,0,0,1.078,1.274c.588.1,1.176.1,1.666.2L113.974,2.842c-1.274,1.372-2.352,2.744-3.528,4.116-.294.392-.98,1.176-.2,1.764q.441.294,1.176-.588c1.274-1.47,2.156-2.744,3.528-4.214,5.586-6.174,11.368-12.25,17.15-18.326a3.293,3.293,0,0,1,1.568-.98,41.887,41.887,0,0,0,8.232-3.136,2.876,2.876,0,0,1,.98-.294,91.637,91.637,0,0,0,14.308-4.116c4.8-1.666,9.408-3.626,14.21-5.1.392-.1.686-1.176-.49-1.372-4.9,1.568-9.6,3.43-14.6,5.194-2.744.98-6.762,2.156-8.722,2.744,5.39-2.94,8.036-5.292,9.016-7.154a1.819,1.819,0,0,0-1.47-2.842C151.9-31.85,148.568-29.792,145.726-28.126Zm-8.918,8.918c3.724-3.724,11.76-10.388,17.542-10.878,1.078-.1,1.274.294,1.078.686a7.265,7.265,0,0,1-2.352,2.548,56.288,56.288,0,0,1-6.468,4.214c-1.274.784-2.646,1.372-3.92,2.156a6.408,6.408,0,0,1-2.254.588C139.258-19.6,136.906-19.208,136.808-19.208Zm-7.252,2.94a11.537,11.537,0,0,1,2.94-.686c-.294.294-.588.588-.686.588A15.9,15.9,0,0,1,129.556-16.268Zm57.526-30.576c-.2.294-3.038,3.234-4.214,4.508-9.114,9.7-18.032,19.5-26.852,29.4-4.116,4.7-8.624,9.506-12.152,14.5-.294.294-.588.98-.1,1.274s.784-.1,1.078-.392c2.548-3.332,5.292-6.468,8.036-9.6,7.252-8.33,14.7-16.464,22.148-24.6,4.508-4.9,12.25-13.034,14.21-15.092,6.468.1,13.818.2,20.286.588a35.212,35.212,0,0,1,4.508.49.519.519,0,0,0,.784-.294.673.673,0,0,0-.294-.882,22.1,22.1,0,0,0-5.1-.784c-3.332-.1-18.522-.49-18.816-.588.2-.2,1.862-1.96,2.646-2.744,2.058-2.058,4.214-4.116,6.272-6.272,1.274-1.274,2.45-2.548,3.626-3.822a.594.594,0,0,0,0-.98c-.2-.294-.588-.294-.98,0-.588.686-1.078,1.176-2.45,2.646L188.552-48.314h-9.016c-5.488.1-10.976.1-16.366.2h-6.664c-.588,0-.784.294-.784.588,0,.2,0,.686.784.686,1.666.1,9.8.1,12.152,0ZM175.518-18.228a4.449,4.449,0,0,1,.588-1.372l2.058-2.94a75.544,75.544,0,0,1,6.174-6.37c.294-.294.686-.588.98-.882a.655.655,0,0,0,0-.98c-.49-.49-.98.1-1.372.392a67.443,67.443,0,0,0-5.39,5.194,31.889,31.889,0,0,0-3.528,4.606,6.225,6.225,0,0,0-.882,2.058,1.375,1.375,0,0,0,1.372,1.764c1.568,0,3.92-1.372,5.1-1.96l10.878-6.174c3.234-1.764,4.508-2.646,5.39-3.136.294-.1.784-1.176-.49-1.372,0,0-3.332,1.96-6.566,3.822-3.528,1.96-6.958,3.92-10.388,5.782C178.36-19.208,176.5-18.228,175.518-18.228Zm15.19-20.678a.756.756,0,0,0-.588,1.078.617.617,0,0,0,.784.294.692.692,0,0,0,.588-.784A.594.594,0,0,0,190.708-38.906ZM356.524-61.054a7.094,7.094,0,0,1-1.078,3.038,31.922,31.922,0,0,1-2.352,3.92c-1.568,2.45-3.234,5-4.9,7.448-2.842,4.312-5.782,8.722-8.428,13.23-1.96,3.234-4.018,6.566-5.88,9.9-1.96,3.234-3.724,6.37-5.586,9.6-1.568,2.646-3.038,5.39-4.41,8.036-2.156,3.92-4.214,7.84-6.174,11.858a33.47,33.47,0,0,0-2.744,7.448,2.649,2.649,0,0,0,.392,2.254.655.655,0,0,0,1.078-.294c.2-.392-.2-.882-.1-1.274A20.745,20.745,0,0,1,318.01,8.82c1.176-2.45,2.352-5,3.626-7.35,2.254-4.508,4.606-8.82,7.154-13.23,2.744-5,5.684-10.094,8.624-14.994,3.528-6.076,7.252-11.956,11.172-17.836,1.862-2.842,3.822-5.782,5.684-8.722,1.47-2.156,3.626-5.684,3.626-7.84a1.453,1.453,0,0,0-1.078-1.274c-1.47-.392-3.626.49-4.41.784a50.2,50.2,0,0,0-6.076,3.038c-3.724,2.058-7.448,4.214-11.074,6.566-4.508,2.744-8.918,5.684-13.328,8.624-3.528,2.45-6.958,4.9-10.388,7.448-3.822,2.744-7.644,5.684-11.368,8.624-4.116,3.234-8.232,6.566-12.25,9.8-1.96,1.666-4.018,3.332-6.076,5A14.8,14.8,0,0,1,279.3-10.78c.392-.686.882-1.568,1.274-2.156,1.176-1.96,2.548-3.822,3.92-5.684,1.764-2.254,3.626-4.508,5.39-6.762,2.744-3.332,5.586-6.664,8.428-10,1.862-2.156,3.822-4.312,5.684-6.468,2.254-2.45,4.606-4.9,6.86-7.448,2.156-2.352,6.566-6.664,7.448-9.114a.945.945,0,0,0-.98-1.176,8.588,8.588,0,0,0-2.842.882c-6.958,3.43-13.328,6.958-20.09,10.878-3.92,2.254-7.742,4.606-11.662,6.958-4.214,2.646-8.428,5.194-12.544,7.938-3.234,2.156-6.37,4.312-9.6,6.468-3.528,2.45-7.056,5-10.584,7.546l-10.29,7.644c-1.372.98-1.862,1.372-3.43,2.45a16.341,16.341,0,0,1-2.254,1.274A25.086,25.086,0,0,1,235.592-10c1.372-2.058,2.94-3.92,4.508-5.88q2.793-3.381,5.88-6.762c2.842-3.234,5.684-6.37,8.624-9.6,2.156-2.45,4.41-4.8,6.566-7.252,2.254-2.45,4.508-4.9,6.664-7.35,2.058-2.254,4.116-4.508,6.076-6.86,1.764-2.254,4.9-5.88,4.7-8.624a3,3,0,0,0-2.254-2.646c-2.94-.784-7.154-.2-10.878.49-2.058.392-4.116.784-6.076,1.274-3.822.98-7.644,1.96-11.368,3.038-3.626,1.078-7.056,2.156-10.584,3.43-5,1.764-10,3.724-14.994,5.782-3.92,1.666-7.84,3.43-11.662,5.292-3.038,1.47-6.174,3.038-9.212,4.606-.392.2-2.352.98-1.568,1.764.392.588.98,0,1.47-.2,4.606-2.352,9.212-4.7,14.21-6.958l8.82-3.822c4.9-1.96,9.8-3.92,14.8-5.586,3.234-1.078,6.37-2.156,9.6-3.038,5.488-1.568,10.976-3.038,16.562-4.116,3.332-.784,9.016-1.568,11.074-.294a1.483,1.483,0,0,1,.686,1.372c0,1.274-.98,2.646-2.254,4.508-1.47,1.96-2.94,3.724-4.606,5.586-1.666,1.96-3.43,3.822-5.194,5.782-1.862,2.156-3.724,4.214-5.684,6.272-2.156,2.45-4.41,4.8-6.566,7.252-2.352,2.548-4.606,5.1-6.958,7.742-2.058,2.254-4.018,4.508-5.978,6.762-1.764,2.156-3.528,4.312-5.1,6.566-.882,1.078-2.646,3.724-2.45,4.606a1.039,1.039,0,0,0,.882.882c1.372.2,5.39-2.842,7.252-4.214,3.136-2.254,6.272-4.606,9.408-6.86,4.8-3.528,9.6-7.056,14.6-10.388,3.724-2.548,7.546-5.1,11.368-7.546l9.114-5.586c4.8-2.94,9.6-5.782,14.5-8.624s15.68-8.722,16.856-8.624a54.221,54.221,0,0,1-3.92,4.508c-1.96,2.254-3.92,4.41-5.978,6.566l-5,5.586c-2.94,3.234-5.782,6.566-8.624,9.9s-5.586,6.664-8.33,10.094c-1.764,2.352-3.528,4.7-5.1,7.154A13.867,13.867,0,0,0,277.536-10a.912.912,0,0,0,.98,1.078,2.234,2.234,0,0,0,1.078-.294,33.956,33.956,0,0,0,4.8-3.43c3.038-2.548,6.174-5.194,9.31-7.742,3.92-3.234,7.84-6.37,11.956-9.408,5.782-4.41,11.662-8.722,17.738-12.838q5.733-3.969,11.76-7.644c4.018-2.646,8.134-5.1,12.446-7.448,1.47-.784,3.038-1.568,4.606-2.254C353.094-60.368,355.544-61.348,356.524-61.054Zm2.94,33.124q-2.352,2.793-4.116,5.292a12.513,12.513,0,0,0-2.254,5,1.589,1.589,0,0,0,1.764,1.96,7.467,7.467,0,0,0,2.842-.98c.98-.588,1.764-.98,2.646-1.568,4.606-2.94,9.114-5.88,13.72-8.918.784-.49,1.078-.686,1.372-.882.686-.49.2-1.078-.49-1.372,0,0-.784.49-.98.588-3.136,2.058-7.056,4.606-10.192,6.664-2.058,1.372-3.92,2.548-6.076,3.92a7.757,7.757,0,0,1-2.744,1.176c-.392,0-.49-.1-.49-.49a13.653,13.653,0,0,1,1.568-3.43,31.446,31.446,0,0,1,3.822-5.1c1.176-1.274,2.352-2.45,3.528-3.724l.686-.686a.89.89,0,0,0,0-.98.762.762,0,0,0-.98-.294,10.711,10.711,0,0,0-1.47.784c-3.038,1.862-6.174,3.822-9.408,5.488-.98.49-2.058.98-3.038,1.47a8.264,8.264,0,0,1-2.352.686,5.456,5.456,0,0,1,1.274-2.254,16.234,16.234,0,0,1,5.684-4.312,5.814,5.814,0,0,1,2.548-.588c.392.1.392.2.392.49,0,.49-.392.98.294,1.274.294.2.784-.1.882-.392a2.862,2.862,0,0,0,.2-.882,1.642,1.642,0,0,0-1.078-1.764,5.617,5.617,0,0,0-3.92.588,19.121,19.121,0,0,0-6.076,4.7,6.966,6.966,0,0,0-1.47,2.842,1.238,1.238,0,0,0,1.274,1.568c1.764.1,5-1.666,5.978-2.156C355.25-25.578,357.9-27.048,359.464-27.93ZM357.9-.686a10.739,10.739,0,0,0,4.41-.49c5.684-1.764,13.622-6.86,21.07-11.956,4.606-3.234,9.114-6.468,13.622-9.7,2.058-1.568,4.606-3.528,6.664-5.1.294-.2.98-1.176-.392-1.47,0,0-.882.588-1.078.784-2.058,1.568-4.116,3.136-6.272,4.606-5.1,3.822-10.29,7.644-15.582,11.172-4.116,2.744-8.232,5.292-12.544,7.644-2.646,1.274-6.174,3.234-9.114,3.136-.784-.1-1.078-.294-.98-1.176a9.173,9.173,0,0,1,.392-1.568A26.76,26.76,0,0,1,360.934-10c2.058-3.136,4.41-6.076,6.762-9.016,5.292-6.37,10.976-12.348,16.758-18.228,5.194-5.292,10.486-10.388,15.68-15.582,3.626-3.626,7.252-7.252,10.584-11.074.588-.588,1.176-1.274.784-1.666-.49-.49-.882-.1-1.47.392-4.018,4.116-8.036,8.33-12.054,12.348-5.194,5.194-10.388,10.29-15.484,15.484a245.735,245.735,0,0,0-16.66,18.424A84.409,84.409,0,0,0,359.17-10a24.02,24.02,0,0,0-2.548,5,7.161,7.161,0,0,0-.392,2.254A2.181,2.181,0,0,0,357.9-.686Zm40.866-21.462c2.254-2.548,8.232-9.31,12.25-13.622,4.214-4.508,8.33-9.114,12.642-13.622,3.43-3.528,6.958-7.056,10.486-10.486,1.078-1.078,2.45-2.548,3.43-3.626a.8.8,0,0,0,0-1.176.746.746,0,0,0-.882.1c-.98.98-1.862,1.96-2.842,2.94-5,4.8-9.9,9.7-14.6,14.8-7.154,7.742-14.21,15.484-21.266,23.226l-4.41,5c-.392.392-.98,1.078-.49,1.568a1.049,1.049,0,0,0,1.372-.1c1.078-.882,2.156-1.764,3.332-2.548a83.405,83.405,0,0,1,8.82-5.586,10,10,0,0,1,2.156-.882,10.1,10.1,0,0,0-.49,3.038,2.109,2.109,0,0,0,2.254,2.254c1.372.1,4.018-.882,5.978-1.666,4.508-1.764,8.722-3.626,13.23-5.39.784-.294,1.078-1.274-.1-1.47,0,0-1.078.392-1.47.588-4.116,1.666-7.644,3.038-11.858,4.7a25.014,25.014,0,0,1-5.782,1.862c-.49,0-.784-.2-.784-.784,0-1.078.392-2.156.49-3.332a1.16,1.16,0,0,0-1.176-1.274C406.6-27.538,401.6-24.3,398.762-22.148Zm22.834,4.7a1.425,1.425,0,0,0,1.764,1.666c1.666-.294,3.43-1.568,5.1-2.94a21.338,21.338,0,0,0,4.214-4.7,4.981,4.981,0,0,0,.784-2.646c1.862-.294,8.82-1.372,12.642-1.96a.7.7,0,0,0-.2-1.372c-2.744.392-6.86.98-9.7,1.372-2.352.392-3.332.588-3.724.392-.588-.294-1.568-.392-1.764.49-.1.392.1.98.98,1.078.294.1.1.882-.2,1.568a18.448,18.448,0,0,1-1.568,2.254c-1.666,1.862-4.214,4.41-6.664,5.1-.294.1-.294-.1-.294-.294a9.62,9.62,0,0,1,1.274-3.136,42.513,42.513,0,0,1,7.938-9.31,2.142,2.142,0,0,1,.49-.294.6.6,0,0,0,.392-.882c-.49-.882-1.568-.1-2.156.392a52.938,52.938,0,0,0-6.272,6.958C423.458-22.246,421.694-19.8,421.6-17.444Zm40.474-29.4c-.2.294-3.038,3.234-4.214,4.508-9.114,9.7-18.032,19.5-26.852,29.4-4.116,4.7-8.624,9.506-12.152,14.5-.294.294-.588.98-.1,1.274s.784-.1,1.078-.392c2.548-3.332,5.292-6.468,8.036-9.6,7.252-8.33,14.7-16.464,22.148-24.6,4.508-4.9,12.25-13.034,14.21-15.092,6.468.1,13.818.2,20.286.588a35.212,35.212,0,0,1,4.508.49.519.519,0,0,0,.784-.294.673.673,0,0,0-.294-.882,22.1,22.1,0,0,0-5.1-.784c-3.332-.1-18.522-.49-18.816-.588.2-.2,1.862-1.96,2.646-2.744,2.058-2.058,4.214-4.116,6.272-6.272,1.274-1.274,2.45-2.548,3.626-3.822a.594.594,0,0,0,0-.98c-.2-.294-.588-.294-.98,0-.588.686-1.078,1.176-2.45,2.646L463.54-48.314h-9.016c-5.488.1-10.976.1-16.366.2h-6.664c-.588,0-.784.294-.784.588,0,.2,0,.686.784.686,1.666.1,9.8.1,12.152,0Zm-2.254,18.326a31.663,31.663,0,0,0,4.018-2.45c3.332-2.45,12.348-9.408,10.878-14.112-.392-1.274-1.764-2.94-5.684-2.254-4.508.784-9.6,3.136-11.76,7.546a10.673,10.673,0,0,0-.686,6.958,17.469,17.469,0,0,0,2.254,5.39c.49.98,1.078,1.96,1.568,3.038,1.47,3.724-2.058,7.252-4.41,9.9-2.744,3.038-5.39,6.174-8.134,9.212-1.372,1.568-3.528,3.92-3.822,5.586-.2.98.2,1.862,1.372,1.764A13.447,13.447,0,0,0,451-.294c2.156-1.47,4.214-2.94,6.37-4.41,10.29-7.35,20.482-14.9,30.674-22.54,1.078-.784,2.254-1.666.588-2.156,0,0-1.078.686-1.274.882-5.488,4.018-10.976,8.134-16.366,12.152C465.7-12.544,460.5-8.82,455.21-5c-1.862,1.372-3.724,2.646-5.684,3.92A11.91,11.91,0,0,1,445.41.686c0-1.176,3.724-5.1,4.8-6.468,2.646-3.038,5.292-5.978,7.938-8.918,2.548-3.136,5.684-6.566,3.234-10.976A13.678,13.678,0,0,0,459.816-28.518ZM470.6-46.06c2.352-.1,3.038,1.372,2.744,2.548-.882,3.038-3.724,5.586-6.076,7.84a41.858,41.858,0,0,1-8.036,5.88,12.1,12.1,0,0,1-1.176-8.036c1.078-3.626,4.508-5.88,8.232-7.252A13.389,13.389,0,0,1,470.6-46.06Zm27.342,18.13q-2.352,2.793-4.116,5.292a12.513,12.513,0,0,0-2.254,5,1.589,1.589,0,0,0,1.764,1.96,7.467,7.467,0,0,0,2.842-.98c.98-.588,1.764-.98,2.646-1.568,4.606-2.94,9.114-5.88,13.72-8.918.784-.49,1.078-.686,1.372-.882.686-.49.2-1.078-.49-1.372,0,0-.784.49-.98.588-3.136,2.058-7.056,4.606-10.192,6.664-2.058,1.372-3.92,2.548-6.076,3.92a7.757,7.757,0,0,1-2.744,1.176c-.392,0-.49-.1-.49-.49a13.653,13.653,0,0,1,1.568-3.43,31.446,31.446,0,0,1,3.822-5.1c1.176-1.274,2.352-2.45,3.528-3.724l.686-.686a.89.89,0,0,0,0-.98.762.762,0,0,0-.98-.294,10.711,10.711,0,0,0-1.47.784c-3.038,1.862-6.174,3.822-9.408,5.488-.98.49-2.058.98-3.038,1.47a8.264,8.264,0,0,1-2.352.686,5.456,5.456,0,0,1,1.274-2.254,16.234,16.234,0,0,1,5.684-4.312,5.814,5.814,0,0,1,2.548-.588c.392.1.392.2.392.49,0,.49-.392.98.294,1.274.294.2.784-.1.882-.392a2.862,2.862,0,0,0,.2-.882,1.642,1.642,0,0,0-1.078-1.764,5.617,5.617,0,0,0-3.92.588,19.121,19.121,0,0,0-6.076,4.7,6.966,6.966,0,0,0-1.47,2.842A1.238,1.238,0,0,0,485.3-22.05c1.764.1,5-1.666,5.978-2.156C493.724-25.578,496.37-27.048,497.938-27.93Z" transform="translate(19.6 66.249)" fill="none" stroke="#f6af0a" stroke-width="1"/>
</svg>
